# xmcd CD database file
#
# Track frame offsets:
#	150
#	19346
#	35066
#	50523
#	67494
#	90333
#	111518
#	125317
#	140151
#	158763
#	170077
#	186423
#	203275
#	223492
#	241995
#	260674
#	278212
#	299354
#	316831
#
# Disc length: 4440 seconds
#
# Revision: 1
# Processed by: cddbd v1.5.2PL0 Copyright (c) Steve Scherf et al.
# Submitted via: CDex 1.51
#
DISCID=33115613
DTITLE=Анне Вески. - Лучшие песни.
DYEAR=1900
DGENRE=
TTITLE0=Позади крутой поворот.
TTITLE1=Но не со мной.
TTITLE2=Возьми меня с собой.
TTITLE3=Белый букет на фоне моря.
TTITLE4=Возвращяйся, моряк.
TTITLE5=Ты.
TTITLE6=Самба с Марадонной.
TTITLE7=По воле волн.
TTITLE8=Синий иней.
TTITLE9=Песенка про капитана.
TTITLE10=Пора домой.
TTITLE11=Не виновата я.
TTITLE12=Музей мадам Тюссо.
TTITLE13=Не ходи по моим следам. (На эстонском языке)
TTITLE14=В первый раз.
TTITLE15=Старые липы.
TTITLE16=Дай мне время.
TTITLE17=Я не в обиде.
TTITLE18=Маленький рай.
EXTD=
EXTT0=
EXTT1=
EXTT2=
EXTT3=
EXTT4=
EXTT5=
EXTT6=
EXTT7=
EXTT8=
EXTT9=
EXTT10=
EXTT11=
EXTT12=
EXTT13=
EXTT14=
EXTT15=
EXTT16=
EXTT17=
EXTT18=
PLAYORDER=
